<?xml version="1.0" standalone="no"?><!DOCTYPE svg PUBLIC "-//W3C//DTD SVG 1.1//EN" "http://www.w3.org/Graphics/SVG/1.1/DTD/svg11.dtd"><svg t="1486446928016" class="icon" style="" viewBox="0 0 1025 1024" version="1.1" xmlns="http://www.w3.org/2000/svg" p-id="3668" xmlns:xlink="http://www.w3.org/1999/xlink" width="200.1953125" height="200"><defs><style type="text/css"></style></defs><path d="M639.338684 1024c-7.991734 0-15.184294-3.196693-21.577681-7.991734L316.472649 743.490152c-5.594213-4.79504-12.786774-7.991734-20.778507-7.991734L127.867737 735.498419c-51.147095 0-127.867737-34.364454-127.867737-127.867737L0 415.829077c0-51.147095 34.364454-127.867737 127.867737-127.867737l167.027231 0c7.991734 0 15.983467-3.196693 21.577681-7.991734L618.560177 8.250666c9.59008-8.790907 23.176027-10.389254 34.364454-5.594213C664.113058 8.250666 671.305618 19.439093 671.305618 32.225866l0 959.807199c0 12.786774-7.19256 23.975201-19.180161 29.569414C648.928764 1023.200827 644.133724 1024 639.338684 1024L639.338684 1024 639.338684 1024zM127.867737 351.895208c-60.737175 0-63.933868 53.544615-63.933868 63.933868l0 191.801605c0 60.737175 53.544615 63.933868 63.933868 63.933868l191.801605 0c7.991734 0 15.184294 3.196693 21.577681 7.991734l251.739607 226.166059c5.594213 4.79504 14.38512 0.799173 14.38512-6.393387L607.37175 120.134935c0-6.393387-7.19256-9.59008-11.9876-5.594213L345.242889 339.907608c-8.790907 7.991734-19.979334 11.9876-31.167761 11.9876L127.867737 351.895208 127.867737 351.895208 127.867737 351.895208zM799.972528 319.928274c-7.991734 0-15.983467-3.196693-22.376854-9.59008-12.786774-12.786774-12.786774-32.766108 0-45.552881l127.867737-127.867737c12.786774-12.786774 32.766108-12.786774 45.552881 0 12.786774 12.786774 12.786774 32.766108 0 45.552881l-127.867737 127.867737C815.955996 316.731581 807.964262 319.928274 799.972528 319.928274L799.972528 319.928274 799.972528 319.928274zM991.774134 543.696814l-191.801605 0c-18.380987 0-33.565281-15.983467-31.966934-35.163628 1.598347-16.78264 16.78264-28.770241 33.565281-28.770241 41.557014 0 147.847071 0 189.404085 0 15.184294 0 29.569414 10.389254 32.766108 25.573547C1026.937761 526.115 1010.954294 543.696814 991.774134 543.696814L991.774134 543.696814 991.774134 543.696814zM927.840265 896.132263c-7.991734 0-15.983467-3.196693-22.376854-9.59008l-127.867737-127.867737c-12.786774-12.786774-12.786774-32.766108 0-45.552881 12.786774-12.786774 32.766108-12.786774 45.552881 0l127.867737 127.867737c12.786774 12.786774 12.786774 32.766108 0 45.552881C943.823732 892.93557 935.831999 896.132263 927.840265 896.132263L927.840265 896.132263 927.840265 896.132263zM927.840265 896.132263" p-id="3669"></path></svg>